<svg id="Layer_1" data-name="Layer 1" xmlns="http://www.w3.org/2000/svg" viewBox="0 0 512 512"><defs><style>.cls-1{fill:#141f38;}</style></defs><title>space_probe_style_2</title><path class="cls-1" d="M485.27,409.86l.13-.13-63.22-63.27-.13.13L406.38,330.9a32.06,32.06,0,0,0-45.36,0l-6.74,6.74-19.35-19.36L377.18,276h0l13.08-13.09a64,64,0,0,0,18.5-39.25q.29-3.07.29-6.15a62.67,62.67,0,0,0-15.45-41.7,87.13,87.13,0,0,0,17.12,3.87,93.23,93.23,0,0,0,10.93.65,89,89,0,0,0,53.48-17.74c15.46-11.55,16.6-34.41,3-48.07L446.91,83.31l10-10.05A38.64,38.64,0,1,0,438.81,55.1l-10,10.05L397.58,33.94a32.35,32.35,0,0,0-22.93-9.49,31,31,0,0,0-25.09,12.46,89.53,89.53,0,0,0-17.08,64.46,87.35,87.35,0,0,0,3.87,17.14,64,64,0,0,0-87,3.35L194,177.22,174.2,157.4l6.74-6.74a32.13,32.13,0,0,0,0-45.4L165.27,89.57l.13-.13L102.18,26.16l-.13.13L86.37,10.61a32.05,32.05,0,0,0-45.36,0L9.39,42.25a32.13,32.13,0,0,0,0,45.4L104,182.31a32.05,32.05,0,0,0,45.36,0l6.74-6.74,19.8,19.82-42.25,42.29h0l-12.47,12.49a63.93,63.93,0,0,0-18.38,38.48,64.75,64.75,0,0,0-.4,6.92q0,3.08.29,6.15A64,64,0,0,0,121.14,341l50.21,50.25a63.82,63.82,0,0,0,33.11,17.63q3,.59,6.1.88t6.15.29h0a63.9,63.9,0,0,0,45.36-18.81l12.47-12.49h0l42.25-42.29,19.35,19.36-6.74,6.74a32.12,32.12,0,0,0,0,45.4L424,502.6a32.05,32.05,0,0,0,45.36,0l31.62-31.65a32.12,32.12,0,0,0,0-45.4ZM473.51,25.68a12.84,12.84,0,1,1-12.83,12.84A12.85,12.85,0,0,1,473.51,25.68Zm-412,77.53,40.56-40.59L129,89.57,88.42,130.16Zm-34-42.8L59.16,28.77a6.41,6.41,0,0,1,9.07,0L83.91,44.46,43.21,85.19,27.54,69.5A6.43,6.43,0,0,1,27.54,60.41ZM126.64,166a6.29,6.29,0,0,1-4.54-1.88l-15.68-15.69,40.69-40.73,15.68,15.69a6.43,6.43,0,0,1,0,9.08l-31.62,31.65A6.29,6.29,0,0,1,126.64,166Zm146.5-30.7a38.23,38.23,0,0,1,4.36-2.53c.36-.18.72-.34,1.08-.51a38.15,38.15,0,0,1,4.43-1.74l.34-.12a38.14,38.14,0,0,1,4.95-1.13l1.21-.18a39.07,39.07,0,0,1,5.17-.39A38.22,38.22,0,0,1,321.91,140l50.21,50.25a38.43,38.43,0,0,1,4.67,5.72c.45.66.77,1.38,1.17,2.06a38.4,38.4,0,0,1,2.23,4.25c.36.85.63,1.73.93,2.6a38.56,38.56,0,0,1,1.22,4.14c.21.93.35,1.88.49,2.82a38.8,38.8,0,0,1,.4,4.15c0,1,0,1.93,0,2.89a38.85,38.85,0,0,1-.4,4.17c-.14.94-.26,1.87-.47,2.8a38.61,38.61,0,0,1-1.25,4.22c-.29.84-.53,1.69-.88,2.52a38.37,38.37,0,0,1-2.39,4.54c-.35.59-.61,1.21-1,1.78-.06.08-.14.16-.2.24L273,135.42Zm97-83.06a5.44,5.44,0,0,1,4.53-2.13,6.73,6.73,0,0,1,4.78,2l80.5,80.57a6.8,6.8,0,0,1,2,5.27,5.39,5.39,0,0,1-2.11,4,63.28,63.28,0,0,1-38.14,12.64,67.66,67.66,0,0,1-7.91-.47,64.15,64.15,0,0,1-43.6-101.91ZM202,381.42A38.45,38.45,0,0,1,189.49,373l-37.66-37.69L139.28,322.8a38.46,38.46,0,0,1-4.64-5.69c-.44-.65-.77-1.35-1.17-2a38.32,38.32,0,0,1-2.23-4.25c-.36-.83-.63-1.69-.93-2.54a38.6,38.6,0,0,1-1.23-4.16c-.21-.91-.36-1.82-.5-2.74a38.72,38.72,0,0,1-.4-4.22c0-.92-.07-1.84,0-2.76a38.76,38.76,0,0,1,.42-4.35c.12-.86.21-1.72.39-2.57a38.55,38.55,0,0,1,1.41-4.77c.23-.64.37-1.3.64-1.93a38.16,38.16,0,0,1,3.24-6.17L237.65,378.12l-.47.28a38,38,0,0,1-3.72,2.06c-.37.18-.75.36-1.13.53a38,38,0,0,1-4.55,1.72l-.44.11a38.39,38.39,0,0,1-4.39,1l-1.27.19a37.57,37.57,0,0,1-16.19-1.3Q203.7,382.14,202,381.42ZM151.76,255.83,254.4,153.1,359,257.83,256.4,360.56ZM381.5,423.5l40.56-40.59L449,409.86l-40.56,40.59Zm2.2-76.33a6.29,6.29,0,0,1,4.54,1.88l15.68,15.69-40.69,40.73-15.68-15.69a6.44,6.44,0,0,1,0-9.08l31.62-31.65A6.29,6.29,0,0,1,383.7,347.18Zm99.1,105.61-31.62,31.65a6.41,6.41,0,0,1-9.07,0l-15.68-15.69L467.13,428l15.68,15.69A6.44,6.44,0,0,1,482.8,452.79Z"/></svg>