<svg height="512pt" viewBox="0 0 512 512.00007" width="512pt" xmlns="http://www.w3.org/2000/svg"><path d="m412.160156 240.617188c-2.929687-2.929688-6.902344-4.574219-11.046875-4.574219-4.140625 0-8.117187 1.644531-11.046875 4.574219l-21.757812 21.761718-12.644532-12.648437 64.800782-64.796875c4.851562-4.78125 7.585937-11.308594 7.59375-18.121094.007812-6.8125-2.714844-13.34375-7.558594-18.136719l-56.40625-56.414062c-10.011719-9.972657-26.207031-9.96875-36.214844.007812l-64.839844 64.835938-13.414062-13.414063 21.761719-21.757812c6.089843-6.105469 6.089843-15.988282 0-22.09375l-95.269531-95.265625c-6.101563-6.097657-15.992188-6.097657-22.09375 0l-60.164063 60.167969c-6.09375 6.105468-6.09375 15.992187 0 22.101562l95.257813 95.257812c2.921874 2.945313 6.902343 4.597657 11.050781 4.582032h.015625c4.140625.007812 8.113281-1.644532 11.035156-4.582032l26.339844-26.339843 13.414062 13.414062-62.097656 62.097657c-23.179688.351562-45.53125 8.691406-63.273438 23.617187-3.375 2.851563-5.402343 6.988281-5.59375 11.402344-.179687 4.359375 1.46875 8.597656 4.550782 11.6875l119.875 119.886719c2.933594 2.914062 6.898437 4.554687 11.03125 4.558593.21875 0 .445312-.007812.660156-.019531 4.414062-.191406 8.546875-2.21875 11.398438-5.589844 19.074218-22.453125 27.230468-52.195312 22.273437-81.238281l53.796875-53.785156 12.644531 12.644531-26.332031 26.335938c-2.9375 2.925781-4.589844 6.902343-4.59375 11.050781 0 4.148437 1.648438 8.125 4.585938 11.054687l95.257812 95.261719c6.109375 6.089844 15.996094 6.089844 22.101562 0l60.167969-60.167969c6.089844-6.105468 6.089844-15.988281 0-22.089844zm-211.992187-71.601563-93.226563-93.222656 58.125-58.128907 93.226563 93.226563zm55.234375 215.683594-117.683594-117.691407c33.269531-27.054687 81.613281-24.570312 111.933594 5.753907 30.324218 30.324219 32.808594 78.667969 5.75 111.9375zm6.34375-124.023438c-13.859375-13.917969-31.515625-23.441406-50.757813-27.378906l57.882813-57.882813c.074218-.070312.175781-.089843.25-.164062.070312-.074219.09375-.171875.164062-.246094l70.660156-70.664062c3.339844-3.324219 8.738282-3.328125 12.082032-.007813l56.40625 56.40625c1.636718 1.609375 2.558594 3.804688 2.558594 6.101563-.011719 2.257812-.933594 4.414062-2.558594 5.980468l-123.6875 123.683594c-5.011719-13.453125-12.859375-25.671875-23.003906-35.828125zm174.464844 144.382813-93.226563-93.226563 58.125-58.125 93.226563 93.226563zm0 0"/><path d="m187.734375 494.933594c-94.214844-.105469-170.5625-76.453125-170.667969-170.667969 0-4.710937-3.820312-8.53125-8.53125-8.53125-4.714844 0-8.535156 3.820313-8.535156 8.53125.117188 103.636719 84.097656 187.617187 187.734375 187.734375 4.710937 0 8.53125-3.820312 8.53125-8.535156 0-4.710938-3.820313-8.53125-8.53125-8.53125zm0 0"/><path d="m187.734375 443.734375c-65.949219-.074219-119.394531-53.519531-119.46875-119.46875 0-4.710937-3.820313-8.53125-8.53125-8.53125-4.714844 0-8.535156 3.820313-8.535156 8.53125.085937 75.371094 61.164062 136.449219 136.535156 136.535156 4.710937 0 8.53125-3.820312 8.53125-8.535156 0-4.710937-3.820313-8.53125-8.53125-8.53125zm0 0"/><path d="m187.734375 392.535156c-37.6875-.046875-68.222656-30.582031-68.269531-68.269531 0-4.710937-3.820313-8.53125-8.53125-8.53125-4.714844 0-8.535156 3.820313-8.535156 8.53125.054687 47.105469 38.230468 85.28125 85.335937 85.335937 4.710937 0 8.53125-3.820312 8.53125-8.535156 0-4.710937-3.820313-8.53125-8.53125-8.53125zm0 0"/></svg>